<?xml version="1.0" encoding="UTF-8"?>
<svg version="1.1" xmlns="http://www.w3.org/2000/svg" viewBox="118.93 80 432.15 450.02">
    <g fill-rule="evenodd" fill="#747D88" style="--darkreader-inline-fill: #5f676b;" data-darkreader-inline-fill="">
      <!-- <rect width="100%" height="100%" fill="green" /> -->
      <path d="m148.94 70h280.67v420h-280.67zm33.105 170.59h215.21v8.75h-215.21zm0 40.957h215.21v8.75h-215.21zm0 40.957h215.21v8.75h-215.21zm0 40.957h215.21v8.75h-215.21zm0 40.957h215.21v8.75h-215.21zm0 40.957h215.21v8.75h-215.21zm-0.75391-339.5h103.91v103.91h-103.91z"></path>
      <path d="m539.07 490h-59.145c-6.5938 0-11.988-5.3984-11.988-11.988v-29.488h83.121v29.488c0 6.5938-5.3945 11.988-11.988 11.988zm-71.133-48.039v-223.62h83.121v223.62zm1.4219-230.18 19.316-44.59h41.633l19.328 44.59zm59.32 204.78h-41.645v-172.8h44.926v172.8zm-35.082-6.5625h31.801v-159.68h-31.801zm-2.082-249.37 17.969-41.477 17.98 41.477z"></path>
    </g>
</svg>